<svg xmlns="http://www.w3.org/2000/svg" width="326.687" height="238.884" viewBox="0 0 326.687 238.884"><circle cx="117.551" cy="117.551" r="117.551" transform="translate(64.797 0)" fill="#f2f2f2"/><circle cx="30.57" cy="30.57" r="30.57" transform="translate(187.705 12.291)" fill="#ebbc43"/><path d="M367.028,143.132l.836,17.42c3.464,4.62,7.2,9.906,10.888,15.668l.527-26.577.291.186a51.873,51.873,0,0,0-12.832-6.859Z" transform="translate(-276.907 -120.289)" fill="#292929"/><path d="M335.717,155.74l-.809-16.875a27.325,27.325,0,0,0-13.571-1.406c-.219.039-.435.084-.65.13C321.758,138.738,328,145.52,335.717,155.74Z" transform="translate(-245.37 -116.286)" fill="#292929"/><path d="M465.368,249l.28.268q-1.727-3.248-3.661-6.315l-7.855,30.907-.133-.117q.852,2.034,1.62,4.04Z" transform="translate(-336.668 -188.759)" fill="#292929"/><path d="M421,178.327l.289.232a81.544,81.544,0,0,0-14.065-13.142l-.537,27.083q5.148,8.124,9.218,16Z" transform="translate(-304.267 -135.661)" fill="#292929"/><path d="M271.3,233.212a68.09,68.09,0,0,0,2.69,13.457L320.83,251.5c-2.445-4.509-4.97-8.74-7.42-12.6l-41.992-5.325Z" transform="translate(-211.545 -182.091)" fill="#292929"/><path d="M281.779,281.767l-.126-.368,47.408,4.214q-.859-1.68-1.737-3.316l-47.014-4.849-.124-.368Q280.9,279.4,281.779,281.767Z" transform="translate(-217.632 -212.134)" fill="#292929"/><path d="M450.158,218.464l.285.251a97.388,97.388,0,0,0-7.774-10.577l-5.163,30.585q2.684,5.27,4.862,10.391Z" transform="translate(-325.373 -164.919)" fill="#292929"/><path d="M474.471,342.569A79.423,79.423,0,0,1,476.6,365.61c2.651-5.649,12.733-29.05,8.964-50.859Z" transform="translate(-350.688 -237.933)" fill="#292929"/><path d="M312.838,344.256a94.2,94.2,0,0,0,8.178,9.6l-.114-.409,42.171,8.676a117.117,117.117,0,0,0-4.1-13.424Z" transform="translate(-239.994 -258.139)" fill="#292929"/><path d="M305.9,157.16c-8.357-11.056-14.951-18.044-15.046-18.144l.109-.233c-6.342,1.44-10.82,5.755-13.283,12Z" transform="translate(-215.913 -117.421)" fill="#292929"/><path d="M460.379,293.467c.156.416.314.833.464,1.247a116.354,116.354,0,0,1,3.688,12.113l10.986-27.553.268.269a46.13,46.13,0,0,0-3.507-11.1q-.972-2.081-2.035-4.1Z" transform="translate(-341.037 -203.41)" fill="#292929"/><path d="M312.45,200.227c-3.65-5.694-7.344-10.917-10.769-15.482l-28.869-6.523-.1-.364a39.269,39.269,0,0,0-1.915,17.089Z" transform="translate(-211.076 -144.181)" fill="#292929"/><path d="M381.807,384.53l-41.862-8.612c17.608,18.075,42.243,31.938,43.815,32.814A76.874,76.874,0,0,0,381.807,384.53Z" transform="translate(-258.558 -279.823)" fill="#292929"/><path d="M340.075,312.944l.009-.028a158.062,158.062,0,0,0-6.881-15.56l-47.524-4.224q1.21,3.2,2.736,6.479a56.633,56.633,0,0,0,5.263,8.866Z" transform="translate(-221.394 -223.127)" fill="#292929"/><path d="M623.868,329,613.4,342.947c-.279,5.767-.773,12.222-1.607,19.012l17.357-20.133.105.328a51.873,51.873,0,0,0-5.508-13.467Z" transform="translate(-444.733 -247.477)" fill="#292929"/><path d="M617.042,319.513,627.182,306a27.325,27.325,0,0,0-9.555-9.739c-.194-.11-.388-.212-.583-.314C617.135,297.514,617.614,306.716,617.042,319.513Z" transform="translate(-448.328 -225.055)" fill="#292929"/><path d="M612.5,484.326l.045.385q.741-3.6,1.208-7.2l-25.763,18.795-.028-.175q-.641,2.11-1.329,4.145Z" transform="translate(-427.502 -349.4)" fill="#292929"/><path d="M624.673,391.272l.075.363a81.546,81.546,0,0,0-2.45-19.092l-17.687,20.517q-1.217,9.54-3.108,18.205Z" transform="translate(-437.686 -277.511)" fill="#292929"/><path d="M504.51,337.317A68.089,68.089,0,0,0,498,349.4l33,33.6c.993-5.033,1.747-9.9,2.319-14.434l-28.946-30.884Z" transform="translate(-366.801 -253.387)" fill="#292929"/><path d="M491.933,381.4l.137-.364L525.9,414.519q.41-1.842.777-3.662l-33.117-33.721.14-.362Q492.765,379.011,491.933,381.4Z" transform="translate(-362.647 -280.408)" fill="#292929"/><path d="M617.166,447.195l.059.375a97.387,97.387,0,0,0,.759-13.1L594.5,454.728q-1.294,5.771-2.883,11.1Z" transform="translate(-430.916 -319.919)" fill="#292929"/><path d="M538.459,566.5A79.423,79.423,0,0,1,525.4,585.6c5.645-2.66,28.335-14.252,39.343-33.453Z" transform="translate(-385.567 -400.517)" fill="#292929"/><path d="M479.539,449.337a94.2,94.2,0,0,0,.176,12.61l.172-.388,26.946,33.579a117.12,117.12,0,0,0,5.4-12.954Z" transform="translate(-354.068 -330.104)" fill="#292929"/><path d="M577.182,314.976c.615-13.846-.007-23.433-.016-23.571l.232-.11c-5.8-2.936-12-2.469-17.885.77Z" transform="translate(-408.929 -220.531)" fill="#292929"/><path d="M573.92,518c-.145.42-.289.842-.438,1.256a116.35,116.35,0,0,1-4.885,11.681l26.035-14.214.035.378a46.131,46.131,0,0,0,4.38-10.788q.579-2.223,1.047-4.455Z" transform="translate(-415.15 -366.071)" fill="#292929"/><path d="M548.019,341.072c.82-6.713,1.306-13.092,1.581-18.793l-18.074-23.437.157-.343a39.268,39.268,0,0,0-12.374,11.94Z" transform="translate(-381.395 -226.803)" fill="#292929"/><path d="M507.259,524.346l-26.749-33.333c2.033,25.152,12.164,51.541,12.817,53.219A76.873,76.873,0,0,0,507.259,524.346Z" transform="translate(-354.824 -358.645)" fill="#292929"/><path d="M512.9,442.593l.025-.015a158.052,158.052,0,0,0,4.625-16.374l-33.908-33.565q-1.112,3.24-2.025,6.735a56.634,56.634,0,0,0-1.6,10.185Z" transform="translate(-354.482 -291.275)" fill="#292929"/><path d="M318.226,388.629l6.179,16.309c4.722,3.323,9.91,7.2,15.2,11.535l-7.714-25.438.334.087a51.873,51.873,0,0,0-14.323-2.557Z" transform="translate(-243.46 -288.484)" fill="#292929"/><path d="M292.657,404.333l-5.986-15.8a27.325,27.325,0,0,0-13.341,2.858c-.2.1-.387.214-.578.324C274.126,392.478,282.154,397,292.657,404.333Z" transform="translate(-212.541 -288.461)" fill="#292929"/><path d="M460.98,453.547l.349.168q-2.646-2.555-5.433-4.874l2.083,31.822-.163-.07q1.439,1.671,2.79,3.341Z" transform="translate(-337.967 -329.764)" fill="#292929"/><path d="M381.543,405.057l.347.131a81.545,81.545,0,0,0-17.438-8.151l7.861,25.923q7.407,6.135,13.713,12.371Z" transform="translate(-275.341 -294.286)" fill="#292929"/><path d="M255.027,487.367a68.089,68.089,0,0,0,6.718,11.967l46.041-9.884c-3.719-3.533-7.428-6.776-10.95-9.685l-41.582,7.916Z" transform="translate(-200.402 -350.942)" fill="#292929"/><path d="M280,525.946l-.234-.311,46.389-10.646q-1.336-1.333-2.677-2.617l-46.211,9.92-.231-.312Q278.431,523.965,280,525.946Z" transform="translate(-215.477 -373.274)" fill="#292929"/><path d="M431.24,431.109l.349.151a97.392,97.392,0,0,0-10.663-7.657l4.543,30.683q4.182,4.182,7.836,8.38Z" transform="translate(-314.018 -312.48)" fill="#292929"/><path d="M500.737,537.639a79.423,79.423,0,0,1,9.145,21.256c.775-6.191,3.13-31.563-7.195-51.139Z" transform="translate(-368.676 -370.112)" fill="#292929"/><path d="M328.856,574.847a94.207,94.207,0,0,0,10.745,6.6l-.235-.353,42.787-4.784a117.116,117.116,0,0,0-8.049-11.5Z" transform="translate(-250.964 -409.188)" fill="#292929"/><path d="M272.484,411.943c-11.365-7.931-19.8-12.539-19.918-12.6l.031-.255c-5.586,3.33-8.511,8.817-8.924,15.518Z" transform="translate(-192.627 -295.688)" fill="#292929"/><path d="M473.037,496.122c.277.347.556.695.827,1.042a116.356,116.356,0,0,1,7.252,10.38l1.931-29.6.338.173a46.132,46.132,0,0,0-6.767-9.475q-1.568-1.678-3.2-3.269Z" transform="translate(-349.706 -341.086)" fill="#292929"/><path d="M288.241,453.164c-5.231-4.287-10.359-8.112-15.027-11.4l-29.471,2.719-.206-.316A39.268,39.268,0,0,0,247,461.015Z" transform="translate(-192.511 -324.921)" fill="#292929"/><path d="M406.9,603.318l-42.474,4.749c22.333,11.748,50.046,17.317,51.812,17.664A76.871,76.871,0,0,0,406.9,603.318Z" transform="translate(-275.321 -435.558)" fill="#292929"/><path d="M345.081,535.265v-.029a158.068,158.068,0,0,0-11.354-12.671l-46.5,10.672q2.142,2.674,4.6,5.316a56.637,56.637,0,0,0,7.746,6.8Z" transform="translate(-222.452 -380.254)" fill="#292929"/><path d="M414.278,678.729c0,14.1-72.524,39.079-161.987,39.079S90.3,692.828,90.3,678.729s72.524-11.976,161.987-11.976S414.278,664.631,414.278,678.729Z" transform="translate(-87.591 -478.924)" fill="#3f3d56"/><path d="M414.278,678.729c0,14.1-72.524,39.079-161.987,39.079S90.3,692.828,90.3,678.729s72.524-11.976,161.987-11.976S414.278,664.631,414.278,678.729Z" transform="translate(-87.591 -478.924)" opacity="0.1"/><ellipse cx="161.987" cy="25.527" rx="161.987" ry="25.527" transform="translate(2.713 174.278)" fill="#3f3d56"/><path d="M487.129,579.7c0,15.36-21.409,10.609-47.623,10.609S392.2,595.06,392.2,579.7s21.407-18.7,47.62-18.7S487.129,564.341,487.129,579.7Z" transform="translate(-294.345 -406.577)" opacity="0.1"/><path d="M487.129,567.7c0,15.36-21.409,10.609-47.623,10.609S392.2,583.06,392.2,567.7s21.407-18.7,47.62-18.7S487.129,552.341,487.129,567.7Z" transform="translate(-294.345 -398.359)" fill="#3f3d56"/><path d="M423.723,465.708a6.892,6.892,0,0,1,1.887-.946,48.108,48.108,0,0,1,13.294-2.894c3.953-.28,8.237.053,11.324,2.537a3.894,3.894,0,0,1,1.149,1.338,4.9,4.9,0,0,1,.145,2.728,3.082,3.082,0,0,1-.264,1.027,2.307,2.307,0,0,1-2.327.973c-.888-.095-1.722-.471-2.6-.645a11.612,11.612,0,0,0-1.641-.167l-5.5-.3a40.028,40.028,0,0,0-10.233.323A10.192,10.192,0,0,0,426,470.7c-.766.43-1.281,1.047-1.992.253C422.765,469.56,422.074,467,423.723,465.708Z" transform="translate(-315.268 -338.629)" fill="#2f2e41"/><path d="M449.535,479.048s7.392-3.314,10.2.51-1.529,2.294-1.529,2.294l-4.843,1.529-5.353-1.02Z" transform="translate(-332.563 -349.539)" fill="#f2f2f2"/><path d="M454.072,469.275s1.02,4.843.255,6.118,4.334,3.059,4.334,3.059l4.843-2.039s-1.275-7.9,0-9.432Z" transform="translate(-336.718 -342.187)" fill="#ffb9b9"/><path d="M454.072,469.275s1.02,4.843.255,6.118,4.334,3.059,4.334,3.059l4.843-2.039s-1.275-7.9,0-9.432Z" transform="translate(-336.718 -342.187)" opacity="0.1"/><path d="M432.994,647.785a27.889,27.889,0,0,1,1.685,4.414.359.359,0,0,0,.446.3l4.534-.005c.56,0,1.31-.18,1.3-.74,0-.393-.406-.638-.705-.893a6.09,6.09,0,0,1-1.39-2.912,9.877,9.877,0,0,0-3.675-4.936,2.151,2.151,0,0,0-.786-.388,2.191,2.191,0,0,0-.861.047c-.8.161-3.768.71-3.207,1.868.242.5,1.138,1.017,1.513,1.483A10.65,10.65,0,0,1,432.994,647.785Z" transform="translate(-320.416 -462.459)" fill="#575a89"/><path d="M481.707,636.749a10.3,10.3,0,0,1-.533.98c-.657,1.083-1.432,2.094-2.044,3.2a5.288,5.288,0,0,0-.745,2.229,2.476,2.476,0,0,0,.865,2.107,3.18,3.18,0,0,0,2.379.406,11.506,11.506,0,0,1,2.455-.289c-.278-1.572,1.048-2.956,1.38-4.517.093-.439.107-.893.232-1.324a6.486,6.486,0,0,1,.513-1.135,14.67,14.67,0,0,0,1.385-4.084,24.359,24.359,0,0,0-4.412-.118C481.993,634.464,482.167,635.763,481.707,636.749Z" transform="translate(-353.362 -456.682)" fill="#575a89"/><path d="M387.912,553.2c-1.159,1.815-.892,4.219-.078,6.213s2.111,3.756,3,5.718c.566,1.251.962,2.577,1.6,3.793.789,1.506,1.94,2.833,2.469,4.449a15.419,15.419,0,0,0,.961,3.094,9.482,9.482,0,0,0,1.126,1.4,12.907,12.907,0,0,1,2.595,4.635,4.62,4.62,0,0,1,3.531-2.785,13.624,13.624,0,0,1,4.682.116,19.679,19.679,0,0,1-2.259-4.215,42.331,42.331,0,0,1-.984-4.528,36.779,36.779,0,0,0-3.625-8.761l7.5-.6a29.25,29.25,0,0,1,3.687-.137c1.937.091,3.834.566,5.761.786a9.826,9.826,0,0,0,5.681-.739,27.226,27.226,0,0,0-4.885,16.079,6.225,6.225,0,0,1,9.423,2.224c2.941-4.019,2.591-9.613,4.921-14.014.479-.9,1.066-1.748,1.584-2.632a38.8,38.8,0,0,0,2.5-5.529c.652-1.667,1.308-3.522.683-5.2a5.428,5.428,0,0,0-1.114-1.713,7.5,7.5,0,0,0-5.216-2.624c-3.071-.07-5.608,2.206-8.3,3.683a19.105,19.105,0,0,1-10.485,2.174c-3.7-.262-7.235-1.473-10.761-2.54a51.2,51.2,0,0,0-5.37-1.385,10.036,10.036,0,0,0-4.442.417A6.753,6.753,0,0,0,387.912,553.2Z" transform="translate(-290.873 -397.832)" fill="#2f2e41"/><path d="M458.043,442.273a7.654,7.654,0,0,1-7.647,7.647,7.47,7.47,0,0,1-1.359-.122,7.647,7.647,0,1,1,9.006-7.525Z" transform="translate(-328.962 -320.029)" fill="#ffb9b9"/><path d="M434.855,481.667a8.987,8.987,0,0,1,1.912,1.147c.51.51,2.039,3.314,4.588,1.529s2.8-2.8,3.569-2.8,1.784,1.529,1.784,1.529l7.01,21.03a29.358,29.358,0,0,1-6.5,5.481c-4.079,2.549-8.922,3.824-11.216,2.8s-6.628-1.784-7.392-3.824-2.039-8.157-2.039-8.157l3.569-15.55Z" transform="translate(-317.883 -352.158)" fill="#f2f2f2"/><path d="M425.3,499.456a10.012,10.012,0,0,0,.684-3.881,23.527,23.527,0,0,0-.1-3.926c-.226-1.705-.781-3.348-1.132-5.032a21.272,21.272,0,0,1-.446-4.491,3.66,3.66,0,0,1,.43-1.99,6.352,6.352,0,0,0,.834-1.166c.321-.885-.472-1.812-1.34-2.177a5.272,5.272,0,0,0-3.3-.132,15.7,15.7,0,0,0-3.1,1.27,7.107,7.107,0,0,0-2.028,1.311,6.628,6.628,0,0,0-1.42,3.063,6.272,6.272,0,0,0-.254,2.7c.278,1.454,1.463,2.547,2.095,3.885a8.5,8.5,0,0,1,.392,5.059c-.292,1.694-.81,3.35-.969,5.061A6.808,6.808,0,0,0,416.8,503.9c.437.547,1.622,1.845,2.422,1.7.628-.115,1.539-1.5,2.045-1.937C422.729,502.4,424.464,501.269,425.3,499.456Z" transform="translate(-309.316 -348.677)" fill="#2f2e41"/><path d="M483.164,473.522a7.665,7.665,0,0,1-1.341,3.989,27.925,27.925,0,0,0-2.146,3.68,8.435,8.435,0,0,0-.394,5.189,16.743,16.743,0,0,0,.562,1.736l1.4,3.831a6.65,6.65,0,0,0,.81,1.7,5.492,5.492,0,0,0,1.1,1.059,10.272,10.272,0,0,0,3.591,1.874,6.074,6.074,0,0,0,3.993-.228,57.787,57.787,0,0,1,2.481-15.316,5.557,5.557,0,0,0,.369-2.818,5.316,5.316,0,0,0-1.882-2.551c-2.445-2.2-5.133-4.5-8.4-4.8C481.407,470.7,483.148,472.494,483.164,473.522Z" transform="translate(-353.821 -344.844)" fill="#2f2e41"/><path d="M432.82,564.4c.194.38.315.793.506,1.173a6.558,6.558,0,0,0,1.04,1.4c1.7,1.89,3.788,3.773,6.33,3.887a1.735,1.735,0,0,0,.746-.094,1.479,1.479,0,0,0,.794-1.135,4.827,4.827,0,0,0-.692-2.876,13.1,13.1,0,0,0-3.78-5.23,7.093,7.093,0,0,0-6.119-.921c-.922.284-2.452.78-1.23,1.622A6.285,6.285,0,0,1,432.82,564.4Z" transform="translate(-320.206 -406.084)" fill="#ffb9b9"/><path d="M455.079,487.186a5.7,5.7,0,0,0-1.2-1.929,4.438,4.438,0,0,0-1.827-.926,9.992,9.992,0,0,0-2.681-.384c-1.08-.007-2.331.283-2.79,1.26a2.974,2.974,0,0,0,.285,2.47,2.422,2.422,0,0,0,.756,1.021,4.2,4.2,0,0,0,1.62.41,7.471,7.471,0,0,1,2.394,1.085l1.891,1.143,3.248,1.963c-.086-.052-.055-2.279-.155-2.644A25.708,25.708,0,0,0,455.079,487.186Z" transform="translate(-331.474 -353.806)" fill="#ffb9b9"/><path d="M432.636,669.23c-.76,1.033-.608,2.509-1.281,3.6-.584.946-1.683,1.442-2.413,2.28a6.105,6.105,0,0,0-.62.892c-.677,1.134-1.227,2.588-.561,3.728a4,4,0,0,0,2.7,1.52,9.9,9.9,0,0,0,3.987.32,3.971,3.971,0,0,0,3.086-2.3,8.9,8.9,0,0,1,.33-.931c.717-1.411,2.964-1.426,3.7-2.828.513-.981.041-2.167-.43-3.169l-1.44-3.06c-.478-1.016-2.416-.432-3.426-.675C434.945,668.287,433.583,667.938,432.636,669.23Z" transform="translate(-318.492 -480.067)" fill="#2f2e41"/><path d="M473.56,661.727a4.1,4.1,0,0,0-1.3,1.785,19.526,19.526,0,0,0-1.2,5.224,6.327,6.327,0,0,0-.041,2.143,4.294,4.294,0,0,0,3.037,2.963,12.656,12.656,0,0,0,4.414.3,3.16,3.16,0,0,0,1.388-.282,2.152,2.152,0,0,0,.908-2.216,6.305,6.305,0,0,0-1.036-2.31,6.326,6.326,0,0,1-1.038-2.309c-.217-1.413.395-3.488-.474-4.767S474.722,660.913,473.56,661.727Z" transform="translate(-348.276 -475.193)" fill="#2f2e41"/><path d="M452.466,429.641a1.941,1.941,0,0,0-.842-1.1,4.454,4.454,0,0,0-.178-1.45c-.463-1.369-1.56-1.291-2.6-1.9-.449-.263-.421-.495-.655-.926a3.437,3.437,0,0,0-1.324-1.351,4.766,4.766,0,0,0-2.151-.912c-1.651-.113-2.917,1.44-4.495,1.939-.7.22-1.443.229-2.142.436a1.971,1.971,0,0,0-1.5,1.426c-.048.333.037.675-.012,1.008-.1.662-.678,1.126-1.067,1.671a4.116,4.116,0,0,0-.074,4.217,5.93,5.93,0,0,0,.5.776,4.775,4.775,0,0,0,.524,1.773,8.836,8.836,0,0,0,3.108,3.1,7.334,7.334,0,0,1-.183-1.323.913.913,0,0,1,.056-.439c.138-.288.5-.364.779-.522a1.969,1.969,0,0,0,.816-1.71c.017-.661-.123-1.322-.054-1.98a1.082,1.082,0,0,1,.37-.8,1.279,1.279,0,0,1,.7-.166,7.881,7.881,0,0,0,3.446-.626,5.107,5.107,0,0,1,1.072-.543,2.281,2.281,0,0,1,2.293,1.145c.509.757.762,1.658,1.231,2.44a2.478,2.478,0,0,0,2.187,1.387.363.363,0,0,0,.271-.12.406.406,0,0,0,.05-.231l.051-3.468A5.241,5.241,0,0,0,452.466,429.641Z" transform="translate(-323.578 -311.383)" fill="#2f2e41"/><path d="M403.346,496.826a13.873,13.873,0,0,0-1.972,3.348c-.236.727-.309,1.5-.48,2.241-.568,2.482-2.211,4.686-2.376,7.226a3.435,3.435,0,0,0,.241,1.659,4.123,4.123,0,0,0,2.674,1.9,8.517,8.517,0,0,1,3.089,1.316,9.469,9.469,0,0,1,1.17,1.357,11.338,11.338,0,0,0,5.416,3.705c-.168-1.16-.247-2.558.68-3.275a3.358,3.358,0,0,1,1.8-.512l2.987-.258a38.383,38.383,0,0,0-6.547-5.1,4.763,4.763,0,0,1-2.1-1.943,4.692,4.692,0,0,1-.238-1.792,44.168,44.168,0,0,0-.563-6.631c-.246-1.523-.571-3.032-.944-4.529-.1-.42-.722-2.305-1.483-1.864-.179.1-.347,1.3-.451,1.548A9.385,9.385,0,0,1,403.346,496.826Z" transform="translate(-298.66 -360.426)" fill="#2f2e41"/><path d="M486.04,489.636l1.22,2.537a6.1,6.1,0,0,1,.769,3.43l.072,7.609a11.082,11.082,0,0,1-.25,3.03,2.426,2.426,0,0,1-.421.9,2.827,2.827,0,0,1-.721.581c-2.308,1.442-5.3,2.262-7.741,1.053a10.708,10.708,0,0,1-1.587-1.036,12.612,12.612,0,0,1-2.686-2.42,16.649,16.649,0,0,1-1.709-3.38,25.978,25.978,0,0,0-3.531-5.792,1.527,1.527,0,0,1-.437-.867c-.015-.667.776-1,1.393-1.249a3.405,3.405,0,0,0,2.225-2.4c2.242,2.939,4.715,6.045,8.252,7.119a.365.365,0,0,0,.561-.312c.2-.84.272-1.705.419-2.556a14.561,14.561,0,0,1,1.536-4.43C483.823,490.686,485.179,487.846,486.04,489.636Z" transform="translate(-346.953 -357.304)" fill="#2f2e41"/><path d="M423.562,514.178a11.7,11.7,0,0,1-1.118,5.214,4.309,4.309,0,0,0-.438,1.148,3.1,3.1,0,0,0,.911,2.351,9.669,9.669,0,0,0,4.134,2.876" transform="translate(-314.742 -374.51)" opacity="0.1"/><path d="M508.487,509.362a2.492,2.492,0,0,0,.122,1.514,15.259,15.259,0,0,1,.556,4.428.161.161,0,0,1-.188.193,2.032,2.032,0,0,1-1.661-.394" transform="translate(-373.181 -371.212)" opacity="0.1"/><ellipse cx="39.709" cy="8.509" rx="39.709" ry="8.509" transform="translate(195.584 193.187)" opacity="0.1"/><path d="M803.444,399l-2.836,2.836,2.836,2.836L806.281,399Z" transform="translate(-548.297 -273.256)" fill="#a0616a"/><path d="M885.834,391.608a3.179,3.179,0,0,1,1.475,2.022l3.679,9.887.716,1.924c.351.944.7,1.888,1,2.85q.282.913.5,1.845a4.849,4.849,0,0,1,.17,1.635,4.543,4.543,0,0,1-.65,1.7,15.251,15.251,0,0,1-5.3,5.435,4.947,4.947,0,0,0-2.876-3.762l1.9-1.046a3.441,3.441,0,0,0,1.066-.781,2.342,2.342,0,0,0,.407-1.785,7.672,7.672,0,0,0-.565-1.791,48.847,48.847,0,0,1-1.659-4.87,10.385,10.385,0,0,0-1.078-2.836c-.5-.775-1.216-1.4-1.668-2.2a5.83,5.83,0,0,1-.367-4.1c.256-1.157.687-2.27,1.048-3.4A1.581,1.581,0,0,1,885.834,391.608Z" transform="translate(-630.047 -290.458)" fill="#d0cde1"/><path d="M814.506,306.406a4.505,4.505,0,0,0-3.088,3.165c-.139.7-.054,1.432-.171,2.138-.271,1.638-1.557,2.889-2.742,4.05s-2.41,2.512-2.5,4.17c-.095,1.815,1.222,3.516.994,5.32-.265,2.1-2.478,3.453-3.025,5.493a5.284,5.284,0,0,0,.819,4.032,11.54,11.54,0,0,0,6.357,4.682,26.485,26.485,0,0,0,7.963,1.038c3.272.034,6.825-.247,9.283-2.406a7.437,7.437,0,0,0,2.469-4.841c.234-2.5-.811-5.086-.09-7.493.453-1.515,1.59-2.9,1.42-4.47-.166-1.537-1.508-2.626-2.429-3.868a15.724,15.724,0,0,1-1.893-3.878l-1.75-4.618a5.36,5.36,0,0,0-1.488-2.459c-1.435-1.116-3.742-.9-5.42-.666A25.36,25.36,0,0,0,814.506,306.406Z" transform="translate(-576.261 -231.67)" fill="#2f2e41"/><path d="M841.071,354.237s.171,5.138-.343,5.651,2.055,3.939,2.055,3.939l4.624-.171,2.4-1.884-2.055-2.74s-.856-4.453-.171-5.48S841.071,354.237,841.071,354.237Z" transform="translate(-601.473 -264.281)" fill="#a0616a"/><path d="M841.071,354.237s.171,5.138-.343,5.651,2.055,3.939,2.055,3.939l4.624-.171,2.4-1.884-2.055-2.74s-.856-4.453-.171-5.48S841.071,354.237,841.071,354.237Z" transform="translate(-601.473 -264.281)" opacity="0.1"/><path d="M726.3,406.774l2.911,6.508,2.227-2.74-4.453-5.823Z" transform="translate(-497.409 -277.172)" fill="#a0616a"/><path d="M694.507,618.009l-1.2,6.679-2.055,2.911,1.2.685,2.055-.343,2.4-.856,1.027-3.939,1.884-5.138Z" transform="translate(-473.405 -423.244)" fill="#a0616a"/><path d="M769.646,604.967l-.685,9.591,1.713,1.37,2.74-2.4v-7.022Z" transform="translate(-526.623 -414.312)" fill="#a0616a"/><circle cx="6.165" cy="6.165" r="6.165" transform="translate(236.258 79.595)" fill="#a0616a"/><path d="M818.309,369.131a1.427,1.427,0,0,0-1.188-.023,9.633,9.633,0,0,0-1.087.567,5.036,5.036,0,0,1-2.927.532,1.006,1.006,0,0,1-.342-.088,1.644,1.644,0,0,1-.313-.253,1.814,1.814,0,0,0-2.512.217c-.181.226-.305.495-.5.706a2.789,2.789,0,0,1-2.106.568,19.527,19.527,0,0,0-4.626.424,8.473,8.473,0,0,0-4.062,2.153,3.093,3.093,0,0,0-.722,1.029c-.207.533-.18,1.131-.365,1.672-.207.6-.665,1.1-.85,1.7a6.785,6.785,0,0,1-.354,1.388c1,.866,1.849,2.021,2.85,2.888a4.661,4.661,0,0,1,1.606,2.034,6.663,6.663,0,0,1,.148,1.577c.124,2.533,1.5,4.831,3.034,6.849a7.725,7.725,0,0,0,1.5,1.591,6.5,6.5,0,0,0,2.585,1.038,25.334,25.334,0,0,0,5.336.338,18.142,18.142,0,0,0,5.478-.631,4.871,4.871,0,0,0,2.315-1.438c.722-.886,1-2.168,1.988-2.749a3.614,3.614,0,0,0,.673-.4,1.746,1.746,0,0,0,.413-.77,11.928,11.928,0,0,0,.564-3.324,9.673,9.673,0,0,1,.137-2.024,6.883,6.883,0,0,1,.738-1.675l2.04-3.7a2.608,2.608,0,0,0,.138-1.086,2.678,2.678,0,0,0-.439-1.389,11.851,11.851,0,0,0-5.895-5.16,2.429,2.429,0,0,1-.557-.273,2.289,2.289,0,0,1-.51-.608C819.948,370,819.287,369.08,818.309,369.131Z" transform="translate(-571.128 -275.078)" fill="#d0cde1"/><path d="M783.287,410.271a14.681,14.681,0,0,0-.881,3.038,7.381,7.381,0,0,0,.667,4.212c1.1,2.263,3.264,3.8,4.791,5.8,1.419,1.857,2.265,4.083,3.494,6.072a1.546,1.546,0,0,1,.4-1.515,8.077,8.077,0,0,0,1.056-1.26,3.676,3.676,0,0,0,.325-1.192,5.593,5.593,0,0,0-.346-3.649,12.172,12.172,0,0,0-1.938-2.028,6.045,6.045,0,0,1-1.53-5.233c.125-.641.354-1.256.525-1.886a21.571,21.571,0,0,0,.481-2.572l.771-5.3c.205-1.409.379-2.968-.419-4.147a1.738,1.738,0,0,0-.626-.592,2.249,2.249,0,0,0-.666-.188c-.839-.137-1.976-.5-2.386.395-.495,1.085-.839,2.269-1.253,3.388Z" transform="translate(-561.53 -296.068)" fill="#d0cde1"/><path d="M808.035,442.57s-10.181,1.969-12.578,1.969h-4.281a12.98,12.98,0,0,0-1.541,5.48c0,2.74-10.1,41.1-10.1,41.1s-9.59,31.511,1.028,31.683,17.3.685,17.468-2.911,1.2-50.007,1.2-50.007l1.6,23.864a59.246,59.246,0,0,1-1.361,17.619c-.767,3.236-.648,6.783,3.188,7.5,7.364,1.37,16.612.171,16.612-2.4s-4.8-59.6-4.8-59.6-2.4-8.392-3.768-9.077S808.035,442.57,808.035,442.57Z" transform="translate(-556.886 -325.47)" fill="#2f2e41"/><path d="M769.038,700.49l3.768-1.37,2.569-6.508,2.74-.343s-1.541,3.254-2.4,3.768-2.226,4.8-2.226,4.8.685,1.713-2.569,2.4-5.651,1.2-5.651,1.2-.343-.685,1.2-2.4a40.85,40.85,0,0,0,3.341-4.6Z" transform="translate(-549.82 -496.476)" fill="#2f2e41"/><path d="M849.169,689.251l-.685,5.138s1.884,2.74,2.4,2.74,3.254-2.4,3.254-2.4a20.127,20.127,0,0,1,0-3.254c.171-.685.514-3.939,0-4.11s-.514,3.817-.514,3.817l-2.226,2.348-2.147-1.287Z" transform="translate(-606.831 -493.115)" fill="#2f2e41"/><ellipse cx="6.679" cy="3.596" rx="6.679" ry="3.596" transform="translate(236.258 78.568)" fill="#2f2e41"/><path d="M81.7,555.659c0,20.175,12.657,36.5,28.3,36.5" transform="translate(-81.696 -402.919)" fill="#3f3d56"/><path d="M171.487,591.268c0-20.4,14.124-36.91,31.578-36.91" transform="translate(-143.189 -402.028)" fill="#292929"/><path d="M114.229,561.463c0,19.164,8.071,34.671,18.045,34.671" transform="translate(-103.976 -406.893)" fill="#292929"/><path d="M171.487,568.988c0-26.068,16.325-47.163,36.5-47.163" transform="translate(-143.189 -379.748)" fill="#3f3d56"/><path d="M152.6,667.581s4.013-.124,5.222-.985,6.173-1.89,6.473-.508,6.031,6.87,1.5,6.906-10.527-.706-11.734-1.441S152.6,667.581,152.6,667.581Z" transform="translate(-130.253 -478.083)" fill="#a8a8a8"/><path d="M165.874,677.214c-4.531.037-10.527-.706-11.734-1.441-.919-.56-1.286-2.569-1.408-3.5l-.134.005s.254,3.237,1.461,3.972,7.2,1.478,11.734,1.441c1.308-.011,1.76-.476,1.735-1.165C167.346,676.946,166.847,677.206,165.874,677.214Z" transform="translate(-130.253 -482.784)" opacity="0.2"/></svg>